<?xml version="1.0" encoding="utf-8"?>
<!-- Generator: Adobe Illustrator 27.5.0, SVG Export Plug-In . SVG Version: 6.00 Build 0)  -->
<svg version="1.1" id="Layer_1" xmlns="http://www.w3.org/2000/svg" xmlns:xlink="http://www.w3.org/1999/xlink" x="0px" y="0px"
	 viewBox="0 0 125 125" style="enable-background:new 0 0 125 125;" xml:space="preserve">
<g>
	<g>
		<rect style="fill:#FFF4F3;" width="125" height="125"/>
		<ellipse style="fill:#CFC7BE;" cx="61.149" cy="98.722" rx="26.795" ry="1.994"/>
		<g>
			<g>
				<path style="fill:#EEAA46;" d="M45.34,83.275l4.669,0.133l5.534-10.27h-4.473c-0.018,0-0.035-0.003-0.052-0.008
					c-0.007,0.002-0.015,0.005-0.023,0.006c-1.564,0.252-2.673,0.864-3.297,1.82c-0.843,1.292-0.516,2.781-0.442,3.067
					c0.253,0.972,0.416,2.965-0.572,4.269C46.341,82.743,45.891,83.071,45.34,83.275z"/>
			</g>
			<g>
				<path style="fill:#FEFEFE;" d="M41.163,81.224c0.509,0.896,1.4,1.959,2.757,1.932c1.112-0.021,1.944-0.386,2.474-1.085
					c0.906-1.195,0.73-3.111,0.51-3.957c-0.234-0.902-0.229-2.257,0.489-3.358c0.682-1.045,1.875-1.711,3.544-1.98
					c0.028-0.005,0.056-0.002,0.081,0.006c0.016-0.005,0.033-0.008,0.051-0.008h4.313c-0.162-0.646-0.896-2.684-3.878-3.912
					c-3.341-1.376-8.04-1.081-10.462,2.818C39.566,74.055,39.623,78.515,41.163,81.224z"/>
			</g>
			<g>
				<path style="fill:#FDD163;" d="M48.332,38.246c-2.428-0.305-7.722-0.683-8.761,0.57c-0.305,0.368-0.566,1.757,1.108,6.925
					c0.634,1.956,1.348,3.838,1.767,4.907c0.006-0.782,0.049-1.554,0.131-2.302c0.269-2.458,1.186-4.771,2.723-6.875
					C46.132,40.332,47.148,39.252,48.332,38.246z"/>
			</g>
			<g>
				<path style="fill:#FEFEFE;" d="M56.03,72.721v0.052h2.505c-0.31-0.752-0.446-1.325-0.454-1.361
					c-0.023-0.098,0.038-0.196,0.136-0.219c0.098-0.023,0.196,0.038,0.219,0.136c0.012,0.052,1.247,5.175,4.812,4.796
					c1.266-0.135,2.06-0.864,2.236-2.055c0.235-1.591-0.768-3.823-2.633-4.609c-1.939-0.816-4.253-0.062-5.583,0.984
					c-0.905,0.712-1.357,1.53-1.24,2.245C56.029,72.701,56.03,72.711,56.03,72.721z"/>
			</g>
			<g>
				<path style="fill:#EEAA46;" d="M40.846,81.404c-0.744-1.308-1.194-3.126-1.235-4.986c-0.026-1.191,0.114-2.309,0.401-3.28
					h-0.061l-5.309,9.832l7.915,0.225C41.908,82.855,41.329,82.253,40.846,81.404z"/>
			</g>
			<g>
				<path style="fill:#FEFEFE;" d="M82.939,60.679c-1.773,1.33-3.642,1.569-4.898,1.536c-1.096-0.029-1.914-0.26-2.21-0.356
					c-0.479,0.55-0.993,1.098-1.544,1.644c-0.071,0.071-0.187,0.07-0.258-0.001c-0.071-0.071-0.07-0.187,0.001-0.258
					c4.676-4.641,6.742-9.38,6.141-14.086C79.613,44.777,76.8,41.216,74.538,39c-2.46-2.41-4.819-3.796-4.842-3.81
					c-0.045-0.026-0.077-0.071-0.087-0.122c-0.173-0.867-1.488-2.939-3.058-4.819c-1.81-2.167-3.401-3.443-4.262-3.414
					c-1.643,0.057-4.388,4.994-5.307,6.892c-0.022,0.045-0.061,0.079-0.109,0.094c-0.032,0.01-3.244,1.042-6.553,3.351
					c-3.04,2.122-6.789,5.789-7.383,11.212c-0.111,1.015-0.154,2.091-0.123,3.197c0.004,0.021,0.004,0.041,0.002,0.061
					c0.169,5.622,2.239,12.024,6.953,15.29c4.258,2.95,10.043,2.72,16.73-0.662c0.09-0.045,0.199-0.009,0.245,0.08
					c0.045,0.09,0.009,0.199-0.08,0.245c-1.93,0.976-3.785,1.697-5.552,2.158c0.636,0.004,1.274,0.116,1.879,0.371
					c0.926,0.39,1.73,1.145,2.265,2.125c0.197,0.361,0.349,0.74,0.454,1.121h14.201c0.549-3.03-2.179-6.039-2.207-6.07
					c-0.068-0.074-0.063-0.189,0.011-0.257c0.074-0.068,0.189-0.063,0.257,0.011c0.098,0.106,1.948,2.149,2.315,4.635
					c6.266-1.835,9.317-6.007,10.026-9.045c0.312-1.338,0.162-2.481-0.393-2.982C88.164,57.078,86.36,58.113,82.939,60.679z"/>
			</g>
			<g>
				<path style="fill:#E39331;" d="M50.276,83.679c-0.032,0.059-0.093,0.096-0.16,0.096c-0.002,0-0.003,0-0.005,0l-10.59-0.302
					l0.446,14.687l16.519-0.356l-0.797-24.168L50.276,83.679z"/>
			</g>
			<g>
				<g>
					<path style="fill:#E39331;" d="M62.312,83.436l-6.261-9.822L56.85,97.8H82.21V83.52H62.466
						C62.403,83.52,62.346,83.488,62.312,83.436z"/>
				</g>
			</g>
			<g>
				<g>
					<path style="fill:#EEAA46;" d="M80.061,72.737C80.061,72.737,80.061,72.737,80.061,72.737l-14.264,0
						c0.093,0.477,0.112,0.949,0.047,1.387c-0.199,1.351-1.131,2.213-2.557,2.364c-1.616,0.172-3.032-0.66-4.093-2.404
						c-0.195-0.32-0.36-0.642-0.5-0.946H56.18l6.386,10.018h26.687l-7.392-10.419L80.061,72.737
						C80.061,72.737,80.061,72.737,80.061,72.737z"/>
				</g>
			</g>
			<g>
				<path style="fill:#FDD163;" d="M44.226,43.155c0,0,1.3,4.555,3.122,4.227c1.821-0.328-1.919-5.768,0.291-8.269
					C47.639,39.113,44.759,42.243,44.226,43.155z"/>
			</g>
			<g>
				<path style="fill:#FDD163;" d="M47.866,38.894c0,0-0.008,2.647,1.935,4.857c1.943,2.21,3.303,1.894,3.497,0.996
					s-1.19-9.374,2.38-10.662C55.678,34.085,50.983,36.053,47.866,38.894z"/>
			</g>
			<g>
				<path style="fill:#FDD163;" d="M55.377,34.217c0,0-0.798,2.273,0.695,4.896s2.568,2.586,2.987,2.022
					c0.419-0.565-0.437-5.428,1.803-7.413C60.863,33.721,57.953,33.206,55.377,34.217z"/>
			</g>
			<g>
				<path style="fill:#F6B3A8;" d="M43.243,46.071c0,0-2.064-4.129-1.433-5.039c0.631-0.911,3.947,0.134,3.947,0.134
					S43.462,44.395,43.243,46.071z"/>
			</g>
			<g>
				<path style="fill:#FDD163;" d="M39.971,74.279c0,0,4.803-2.234,7.328,1.141c0,0-0.631,1.287,0,3.619
					c0.631,2.331-1.904,5.294-4.741,4.007C39.722,81.759,39.564,74.668,39.971,74.279z"/>
			</g>
			<g>
				<path style="fill:#FDD163;" d="M42.558,69.616c0,0,1.996,0.34,3.065,1.53c1.069,1.19,2.356,0.947,2.526,0.291
					c0.17-0.656-0.073-2.599-1.336-3.497C46.813,67.94,44.497,68.232,42.558,69.616z"/>
			</g>
			<g>
				<path style="fill:#FDD163;" d="M50.359,68.305c0,0,0.461,1.433,0.255,2.538c-0.206,1.105,0.474,1.999,1.251,1.789
					c0.777-0.21,1.615-1.68,1.809-2.748C53.674,69.883,51.525,68.487,50.359,68.305z"/>
			</g>
			<g>
				<path style="fill:#FDD163;" d="M76.722,61.917c0,0,2.307,2.562,3.084,3.959c0.777,1.396,1.664,2.149,2.186,1.044
					c0.522-1.105,0.389-4.104-0.959-5.416C81.032,61.505,78.628,62.233,76.722,61.917z"/>
			</g>
			<g>
				<path style="fill:#FDD163;" d="M82.556,60.715c0,0,3.807,2.506,4.189,6.736c0,0,2.994-2.68,3.728-5.837
					c0.734-3.157-1.482-4.209-3.024-3.795C85.908,58.233,82.556,60.715,82.556,60.715z"/>
			</g>
			<g>
				<path style="fill:#FDD163;" d="M58.738,72.846c0,0,1.287-3.631,4.25-3.497c0,0,2.926,1.621,2.696,4.265s-2.665,3.021-3.91,2.532
					C60.528,75.657,58.981,73.818,58.738,72.846z"/>
			</g>
			<g>
				<g>
					<path style="fill:#9B0064;" d="M82.72,60.387c-2.737,2.053-5.752,1.418-6.628,1.169c3.48-4.104,4.974-8.281,4.442-12.445
						c-0.574-4.488-3.442-8.121-5.747-10.379c-2.255-2.208-4.428-3.568-4.838-3.816c-0.242-0.97-1.532-3.002-3.117-4.9
						c-0.903-1.082-3.155-3.593-4.554-3.544c-0.94,0.032-2.176,1.247-3.672,3.609c-0.971,1.533-1.747,3.077-1.916,3.418
						c-0.507,0.171-3.497,1.228-6.568,3.369c-0.492,0.343-0.961,0.696-1.409,1.06c-0.884-0.12-8.027-1.029-9.423,0.655
						c-0.635,0.767-0.295,3.145,1.042,7.27c0.923,2.85,2.016,5.541,2.127,5.812c0.079,2.382,0.494,4.824,1.213,7.026
						c1.232,3.772,3.269,6.726,5.891,8.542c2.046,1.417,4.428,2.136,7.08,2.136c0.031,0,0.063,0,0.094,0
						c0.63-0.004,1.276-0.049,1.937-0.134c-0.62,0.247-1.18,0.57-1.632,0.925c-0.864,0.68-1.354,1.467-1.393,2.212
						c-0.298-0.907-1.222-2.701-4.007-3.847c-1.931-0.795-4.054-0.986-5.978-0.537c-2.11,0.492-3.816,1.702-4.932,3.5
						c-0.239,0.384-0.442,0.819-0.607,1.295c-0.017-0.005-0.034-0.008-0.052-0.008h-0.231c-0.067,0-0.128,0.037-0.16,0.096
						l-5.501,10.188c-0.03,0.056-0.029,0.123,0.003,0.178c0.032,0.055,0.089,0.089,0.153,0.091l4.819,0.137l0.452,14.889
						c0.003,0.099,0.084,0.177,0.182,0.177c0.001,0,0.003,0,0.004,0l16.882-0.364h25.717c0.101,0,0.182-0.082,0.182-0.182V83.52
						h7.031c0.068,0,0.131-0.038,0.162-0.099c0.031-0.061,0.026-0.133-0.013-0.189l-7.65-10.783
						c-0.034-0.048-0.09-0.077-0.149-0.077h-1.675c0.075-0.444,0.086-0.884,0.05-1.314c6.457-1.869,9.605-6.186,10.338-9.329
						c0.348-1.489,0.159-2.736-0.504-3.335C88.14,56.564,86.002,57.926,82.72,60.387z M42.445,50.648
						c-0.419-1.068-1.133-2.95-1.767-4.907c-1.675-5.168-1.413-6.557-1.108-6.925c1.039-1.254,6.333-0.875,8.761-0.57
						c-1.184,1.006-2.199,2.086-3.032,3.225c-1.537,2.103-2.453,4.416-2.723,6.875C42.494,49.094,42.451,49.866,42.445,50.648z
						 M57.268,70.446c1.33-1.046,3.644-1.801,5.583-0.984c1.866,0.785,2.868,3.017,2.633,4.609
						c-0.175,1.191-0.969,1.921-2.236,2.055c-3.565,0.379-4.8-4.744-4.812-4.796c-0.023-0.098-0.12-0.159-0.219-0.136
						c-0.098,0.023-0.159,0.121-0.136,0.219c0.008,0.036,0.144,0.609,0.454,1.361H56.03v-0.052c0-0.01-0.001-0.02-0.002-0.029
						C55.911,71.977,56.363,71.158,57.268,70.446z M47.257,78.022c-0.074-0.285-0.402-1.775,0.442-3.067
						c0.624-0.956,1.733-1.568,3.297-1.82c0.008-0.001,0.015-0.004,0.023-0.006c0.016,0.005,0.034,0.008,0.052,0.008h4.473
						l-5.534,10.27l-4.669-0.133c0.551-0.203,1.001-0.532,1.344-0.984C47.673,80.986,47.509,78.994,47.257,78.022z M41.042,71.679
						c2.422-3.899,7.121-4.193,10.462-2.818c2.982,1.228,3.716,3.265,3.878,3.912h-4.313c-0.018,0-0.035,0.003-0.051,0.008
						c-0.026-0.008-0.053-0.01-0.081-0.006c-1.669,0.269-2.861,0.935-3.544,1.98c-0.718,1.1-0.724,2.456-0.489,3.358
						c0.22,0.846,0.396,2.761-0.51,3.957c-0.53,0.699-1.362,1.064-2.474,1.085c-1.357,0.027-2.248-1.037-2.757-1.932
						C39.623,78.515,39.566,74.055,41.042,71.679z M34.643,82.97l5.309-9.832h0.061c-0.288,0.971-0.427,2.089-0.401,3.28
						c0.041,1.86,0.491,3.678,1.235,4.986c0.483,0.849,1.062,1.452,1.712,1.792L34.643,82.97z M39.967,98.161l-0.446-14.687
						l10.59,0.302c0.002,0,0.003,0,0.005,0c0.067,0,0.128-0.037,0.16-0.096l5.411-10.043l0.797,24.168L39.967,98.161z M82.21,97.8
						H56.85l-0.798-24.186l6.261,9.822c0.033,0.052,0.091,0.084,0.154,0.084H82.21V97.8z M81.861,72.737l7.392,10.419H62.566
						L56.18,73.138h2.514c0.139,0.304,0.305,0.626,0.5,0.946c1.061,1.745,2.477,2.576,4.093,2.404
						c1.426-0.152,2.358-1.013,2.557-2.364c0.064-0.438,0.046-0.91-0.047-1.387h14.264c0,0,0,0,0,0c0,0,0,0,0,0H81.861z
						 M90.314,61.647c-0.709,3.037-3.76,7.21-10.026,9.045c-0.367-2.486-2.217-4.529-2.315-4.635
						c-0.068-0.074-0.183-0.079-0.257-0.011c-0.074,0.068-0.079,0.183-0.011,0.257c0.028,0.031,2.756,3.04,2.207,6.07H65.711
						c-0.105-0.381-0.257-0.76-0.454-1.121c-0.535-0.981-1.34-1.736-2.265-2.125c-0.605-0.255-1.243-0.367-1.879-0.371
						c1.767-0.462,3.622-1.182,5.552-2.158c0.09-0.045,0.126-0.155,0.08-0.245c-0.045-0.09-0.155-0.126-0.245-0.08
						c-6.687,3.383-12.472,3.612-16.73,0.662c-4.715-3.266-6.784-9.668-6.953-15.29c0.003-0.02,0.003-0.041-0.002-0.061
						c-0.031-1.107,0.012-2.182,0.123-3.197c0.594-5.423,4.343-9.091,7.383-11.212c3.309-2.309,6.521-3.341,6.553-3.351
						c0.048-0.015,0.087-0.049,0.109-0.094c0.919-1.898,3.663-6.835,5.307-6.892c0.861-0.03,2.452,1.246,4.262,3.414
						c1.57,1.88,2.884,3.952,3.058,4.819c0.01,0.051,0.042,0.095,0.087,0.122c0.024,0.014,2.382,1.4,4.842,3.81
						c2.261,2.216,5.075,5.777,5.634,10.159c0.601,4.706-1.465,9.445-6.141,14.086c-0.071,0.071-0.072,0.186-0.001,0.258
						c0.071,0.071,0.186,0.072,0.258,0.001c0.551-0.547,1.064-1.095,1.544-1.644c0.296,0.096,1.113,0.327,2.21,0.356
						c1.256,0.033,3.125-0.206,4.898-1.536c3.421-2.566,5.226-3.601,6.982-2.014C90.476,59.166,90.626,60.309,90.314,61.647z"/>
				</g>
			</g>
			<g>
				<path style="fill:#F6B3A8;" d="M61.154,33.666c0,0,3.461-0.51,5.41,0.419c0,0-2.586-4.372-3.443-4.353
					C62.265,29.75,61.063,32.665,61.154,33.666z"/>
			</g>
			<g>
				
					<ellipse transform="matrix(0.866 -0.5 0.5 0.866 -24.0257 33.3945)" style="fill:#F6B3A8;" cx="50.302" cy="61.53" rx="2.701" ry="1.911"/>
			</g>
			<g>
				
					<ellipse transform="matrix(0.866 -0.5 0.5 0.866 -16.9136 41.5039)" style="fill:#F6B3A8;" cx="68.99" cy="52.313" rx="2.701" ry="1.911"/>
			</g>
			<g>
				
					<ellipse transform="matrix(0.8917 -0.4527 0.4527 0.8917 -19.3079 28.8736)" style="fill:#9B0064;" cx="50.678" cy="54.781" rx="1.79" ry="2.465"/>
			</g>
			<g>
				<ellipse style="fill:#FEFEFE;" cx="50.238" cy="53.854" rx="0.874" ry="0.801"/>
			</g>
			<g>
				
					<ellipse transform="matrix(0.8917 -0.4527 0.4527 0.8917 -15.0174 34.3209)" style="fill:#9B0064;" cx="64.205" cy="48.539" rx="1.79" ry="2.465"/>
			</g>
			<g>
				<ellipse style="fill:#FEFEFE;" cx="63.765" cy="47.613" rx="0.874" ry="0.801"/>
			</g>
			<g>
				
					<ellipse transform="matrix(0.9063 -0.4227 0.4227 0.9063 -18.5796 30.2927)" style="fill:#FDD163;" cx="59.021" cy="57.044" rx="6.113" ry="4.549"/>
			</g>
			<g>
				<path style="fill:#F6B3A8;" d="M57.287,57.011c0.174,0.431,0.596,0.735,1.09,0.735c0.649,0,1.175-0.526,1.175-1.175
					c0-0.303-0.115-0.58-0.304-0.788c0,0-1.04,0.205-1.317-0.063c0,0-0.094,0.999-0.644,1.324"/>
			</g>
			<g>
				<path style="fill:#9B0064;" d="M58.376,57.928c-0.521,0-0.987-0.292-1.216-0.753c-0.012-0.011-0.022-0.024-0.031-0.039
					c-0.02-0.034-0.028-0.072-0.025-0.109c-0.007-0.078,0.037-0.155,0.113-0.185c0.019-0.008,0.038-0.012,0.057-0.013
					c0.325-0.271,0.452-0.893,0.474-1.126c0.007-0.07,0.053-0.129,0.118-0.154c0.066-0.024,0.139-0.009,0.19,0.04
					c0.125,0.121,0.699,0.106,1.156,0.016c0.063-0.012,0.127,0.009,0.17,0.056c0.226,0.25,0.351,0.573,0.351,0.91
					C59.733,57.32,59.125,57.928,58.376,57.928z M57.53,57.09c0.178,0.292,0.496,0.474,0.847,0.474c0.547,0,0.993-0.445,0.993-0.993
					c0-0.214-0.068-0.42-0.194-0.59c-0.243,0.041-0.75,0.106-1.103,0.009C58.011,56.293,57.863,56.796,57.53,57.09z"/>
			</g>
			<g>
				<path style="fill:#9B0064;" d="M60.091,54.393c-0.045-0.108-0.103-0.206-0.17-0.295c-0.067-0.091-0.139-0.168-0.229-0.245
					c-0.039-0.033-0.098-0.034-0.138,0c-0.045,0.038-0.05,0.105-0.012,0.15l0.005,0.006c0.24,0.283,0.386,0.679,0.235,0.964
					c-0.072,0.144-0.195,0.271-0.344,0.375c-0.148,0.103-0.323,0.197-0.489,0.257c-0.167,0.061-0.336,0.089-0.485,0.06
					c-0.151-0.022-0.283-0.103-0.402-0.218c-0.119-0.116-0.216-0.271-0.295-0.437c-0.031-0.062-0.058-0.127-0.083-0.193
					c0.389-0.529,0.56-1.601,0.411-1.771c-0.196-0.223-0.64-0.244-1.447,0.066c0,0-1.092,0.488-1.113,1.096
					c-0.021,0.598,1.01,0.949,1.688,0.904c0.017,0.022,0.034,0.044,0.05,0.066c0.055,0.077,0.106,0.156,0.15,0.236
					c0.092,0.16,0.163,0.328,0.191,0.492c0.027,0.164,0.018,0.318-0.05,0.455c-0.061,0.139-0.181,0.261-0.326,0.364
					c-0.144,0.102-0.321,0.192-0.49,0.256c-0.171,0.063-0.345,0.092-0.504,0.069c-0.321-0.039-0.563-0.384-0.659-0.742L55.585,56.3
					c-0.013-0.05-0.061-0.084-0.113-0.079c-0.059,0.006-0.101,0.058-0.096,0.116c0.012,0.117,0.035,0.22,0.071,0.327
					c0.035,0.106,0.082,0.209,0.145,0.308c0.063,0.098,0.144,0.189,0.242,0.264c0.098,0.074,0.214,0.13,0.334,0.162
					c0.243,0.063,0.488,0.031,0.705-0.03c0.219-0.066,0.415-0.154,0.612-0.276c0.193-0.124,0.381-0.293,0.497-0.526
					c0.084-0.163,0.12-0.347,0.119-0.524c0.093,0.041,0.191,0.071,0.293,0.084c0.257,0.037,0.504-0.021,0.715-0.109
					c0.213-0.093,0.397-0.203,0.576-0.346c0.174-0.144,0.34-0.326,0.426-0.562c0.042-0.117,0.063-0.244,0.058-0.367
					C60.164,54.62,60.136,54.501,60.091,54.393z"/>
			</g>
			<g>
				<path style="fill:#9B0064;" d="M62.569,76.258c0.016-0.048,0.033-0.11,0.046-0.167c0.014-0.059,0.026-0.118,0.037-0.178
					c0.012-0.06,0.018-0.121,0.027-0.182l0.018-0.183c0.017-0.246,0.007-0.494-0.031-0.739c-0.015-0.124-0.048-0.244-0.077-0.366
					l-0.059-0.178c-0.01-0.03-0.019-0.06-0.031-0.089l-0.038-0.086c-0.093-0.235-0.235-0.447-0.385-0.654
					c0.173,0.187,0.343,0.384,0.467,0.613l0.05,0.084c0.016,0.028,0.028,0.058,0.043,0.088l0.083,0.177
					c0.045,0.122,0.094,0.244,0.126,0.372c0.07,0.253,0.113,0.515,0.126,0.78l0.005,0.199c-0.002,0.066-0.001,0.133-0.006,0.2
					c-0.004,0.067-0.009,0.133-0.017,0.2c-0.008,0.068-0.016,0.132-0.032,0.207c-0.02,0.099-0.116,0.163-0.215,0.143
					s-0.163-0.116-0.143-0.215c0.001-0.007,0.003-0.014,0.005-0.02L62.569,76.258z"/>
			</g>
			<g>
				<path style="fill:#9B0064;" d="M65.172,75.057c-0.061-0.208-0.136-0.422-0.215-0.63c-0.079-0.209-0.167-0.414-0.264-0.615
					c-0.097-0.201-0.204-0.398-0.33-0.582c-0.126-0.183-0.267-0.361-0.453-0.493c0.202,0.106,0.371,0.268,0.524,0.437
					c0.154,0.171,0.291,0.356,0.417,0.548c0.127,0.192,0.245,0.389,0.354,0.591c0.11,0.203,0.213,0.405,0.309,0.621
					c0.041,0.092,0,0.2-0.092,0.241c-0.092,0.041-0.2,0-0.241-0.092c-0.003-0.007-0.006-0.015-0.008-0.022L65.172,75.057z"/>
			</g>
			<g>
				<ellipse style="fill:#9B0064;" cx="87.45" cy="62.148" rx="1.293" ry="1.615"/>
			</g>
			<g>
				<ellipse style="fill:#9B0064;" cx="87.729" cy="59.009" rx="0.504" ry="0.54"/>
			</g>
			<g>
				<ellipse style="fill:#9B0064;" cx="89.478" cy="59.72" rx="0.638" ry="0.814"/>
			</g>
			<g>
				<ellipse style="fill:#9B0064;" cx="89.87" cy="61.614" rx="0.392" ry="0.619"/>
			</g>
			<g>
				<path style="fill:#9B0064;" d="M74.574,45.163c0.067-0.149,0.137-0.28,0.212-0.415c0.075-0.133,0.154-0.264,0.236-0.392
					c0.165-0.256,0.344-0.503,0.537-0.738c0.386-0.47,0.825-0.897,1.313-1.26c0.245-0.18,0.501-0.345,0.767-0.492
					c0.268-0.142,0.543-0.272,0.828-0.376c0.569-0.211,1.168-0.332,1.769-0.376c0.042-0.003,0.078,0.028,0.081,0.07
					c0.003,0.041-0.027,0.077-0.067,0.081l-0.001,0c-0.586,0.061-1.164,0.196-1.708,0.416c-0.272,0.109-0.534,0.242-0.788,0.387
					c-0.252,0.149-0.493,0.315-0.724,0.495c-0.459,0.363-0.869,0.786-1.226,1.249c-0.178,0.232-0.343,0.474-0.494,0.723
					c-0.076,0.125-0.147,0.252-0.214,0.381c-0.066,0.127-0.132,0.262-0.184,0.387l-0.002,0.005
					c-0.038,0.093-0.145,0.137-0.238,0.099c-0.093-0.038-0.137-0.145-0.099-0.238C74.572,45.167,74.573,45.165,74.574,45.163z"/>
			</g>
			<g>
				<path style="fill:#9B0064;" d="M76.856,48.927c0.298-0.119,0.591-0.218,0.89-0.312c0.299-0.093,0.6-0.176,0.904-0.25
					c0.608-0.148,1.227-0.252,1.852-0.299c0.625-0.04,1.26-0.025,1.876,0.118c0.615,0.133,1.205,0.425,1.657,0.868
					c0.023,0.022,0.023,0.058,0.001,0.081c-0.022,0.022-0.057,0.023-0.079,0.002l-0.001-0.001c-0.448-0.41-1.018-0.669-1.615-0.777
					c-0.596-0.118-1.212-0.113-1.818-0.053c-0.607,0.066-1.208,0.188-1.797,0.352c-0.295,0.082-0.587,0.173-0.876,0.274
					c-0.287,0.1-0.577,0.21-0.85,0.33l-0.004,0.002c-0.092,0.041-0.2-0.001-0.24-0.093c-0.04-0.092,0.001-0.2,0.093-0.24
					C76.852,48.929,76.854,48.928,76.856,48.927z"/>
			</g>
			<g>
				<path style="fill:#9B0064;" d="M44.257,60.055c-0.423,0.098-0.853,0.233-1.267,0.386c-0.416,0.156-0.824,0.333-1.213,0.545
					c-0.195,0.105-0.386,0.218-0.569,0.342c-0.183,0.123-0.362,0.255-0.528,0.4c-0.334,0.287-0.625,0.627-0.829,1.018l0,0.001
					c-0.016,0.031-0.054,0.042-0.084,0.027c-0.03-0.015-0.042-0.052-0.028-0.082c0.194-0.418,0.483-0.787,0.817-1.101
					c0.166-0.159,0.344-0.303,0.528-0.439c0.184-0.137,0.375-0.262,0.571-0.379c0.392-0.236,0.802-0.437,1.222-0.615
					c0.21-0.089,0.423-0.172,0.638-0.248c0.216-0.076,0.43-0.147,0.657-0.21c0.097-0.027,0.197,0.031,0.224,0.128
					c0.027,0.097-0.031,0.197-0.128,0.224c-0.002,0.001-0.004,0.001-0.006,0.002L44.257,60.055z"/>
			</g>
			<g>
				<path style="fill:#9B0064;" d="M46.331,63.769c-0.156,0.101-0.318,0.224-0.469,0.347c-0.153,0.125-0.3,0.257-0.441,0.395
					c-0.282,0.276-0.537,0.58-0.753,0.909c-0.106,0.166-0.202,0.338-0.285,0.516c-0.082,0.178-0.147,0.364-0.198,0.554
					c-0.051,0.19-0.077,0.385-0.09,0.582c-0.012,0.197,0.004,0.394,0.031,0.591l0,0.003c0.004,0.032-0.018,0.061-0.049,0.065
					c-0.03,0.004-0.059-0.016-0.064-0.046c-0.038-0.202-0.066-0.408-0.064-0.616c0.003-0.207,0.02-0.415,0.064-0.618
					c0.043-0.203,0.102-0.403,0.179-0.596c0.078-0.192,0.169-0.379,0.272-0.559c0.209-0.358,0.46-0.69,0.74-0.994
					c0.14-0.152,0.287-0.298,0.44-0.437c0.155-0.14,0.309-0.271,0.486-0.398c0.082-0.059,0.196-0.041,0.254,0.041
					c0.059,0.082,0.041,0.196-0.041,0.254c-0.002,0.002-0.005,0.003-0.007,0.005L46.331,63.769z"/>
			</g>
		</g>
	</g>
	<g>
		<g>
			<path style="fill:#B8AEED;" d="M80.207,30.964c-0.718-1.494-2.824-1.04-3.358,0.479c-0.512-1.519-2.53-1.973-3.218-0.479
				c-0.632,1.371,1.779,3.932,2.968,5.079c-0.077,0.368-0.145,0.582-0.145,0.582s0.152-0.127,0.394-0.345
				c0.232,0.217,0.378,0.345,0.378,0.345s-0.063-0.207-0.135-0.566C78.326,34.921,80.869,32.342,80.207,30.964z"/>
			<path style="fill:#F9E978;" d="M98.451,68.297c-0.718-1.494-2.823-1.04-3.358,0.479c-0.512-1.519-2.53-1.973-3.218-0.479
				c-0.631,1.371,1.779,3.932,2.968,5.079c-0.077,0.368-0.145,0.582-0.145,0.582s0.152-0.127,0.394-0.345
				c0.232,0.217,0.378,0.345,0.378,0.345s-0.063-0.207-0.135-0.566C96.57,72.254,99.113,69.675,98.451,68.297z"/>
			<path style="fill:#B8AEED;" d="M97.633,60.882c0,0.681-0.552,1.233-1.233,1.233c-0.681,0-1.233-0.552-1.233-1.233
				c0-0.681,0.552-1.233,1.233-1.233C97.08,59.649,97.633,60.201,97.633,60.882z"/>
			<path style="fill:#BCE8CD;" d="M92.699,82.672c0,0.454-0.368,0.822-0.822,0.822c-0.454,0-0.822-0.368-0.822-0.822
				c0-0.454,0.368-0.822,0.822-0.822C92.331,81.85,92.699,82.218,92.699,82.672z"/>
			<path style="fill:#F9E978;" d="M86.943,47.315c0,0.454-0.368,0.822-0.822,0.822s-0.822-0.368-0.822-0.822
				c0-0.454,0.368-0.822,0.822-0.822S86.943,46.861,86.943,47.315z"/>
		</g>
		<g>
			<path style="fill:#BCE8CD;" d="M37.561,91.278c-0.718-1.494-2.824-1.04-3.358,0.479c-0.512-1.519-2.53-1.973-3.218-0.479
				c-0.631,1.371,1.779,3.932,2.968,5.079c-0.077,0.368-0.145,0.582-0.145,0.582s0.152-0.127,0.394-0.345
				c0.232,0.217,0.378,0.345,0.378,0.345s-0.063-0.207-0.135-0.566C35.68,95.235,38.223,92.656,37.561,91.278z"/>
			<path style="fill:#FBC2D3;" d="M37.561,44.409c-0.718-1.494-2.824-1.04-3.358,0.479c-0.512-1.519-2.53-1.973-3.218-0.479
				c-0.631,1.371,1.779,3.932,2.968,5.079c-0.077,0.368-0.145,0.582-0.145,0.582s0.152-0.128,0.394-0.345
				c0.232,0.217,0.378,0.345,0.378,0.345s-0.063-0.207-0.135-0.566C35.68,48.367,38.223,45.787,37.561,44.409z"/>
			<circle style="fill:#FBC2D3;" cx="34.019" cy="66.927" r="1.233"/>
			<path style="fill:#BCE8CD;" d="M42.652,56.649c0,0.454-0.368,0.822-0.822,0.822c-0.454,0-0.822-0.368-0.822-0.822
				c0-0.454,0.368-0.822,0.822-0.822C42.284,55.826,42.652,56.194,42.652,56.649z"/>
			<path style="fill:#F9E978;" d="M45.119,80.494c0,0.454-0.368,0.822-0.822,0.822s-0.822-0.368-0.822-0.822
				s0.368-0.822,0.822-0.822S45.119,80.04,45.119,80.494z"/>
		</g>
	</g>
</g>
</svg>
